g OL_Bullet_01_Warhead
v -0.0032796864 -0.0023828326 0
v 0.0032796876 -0.0023828307 0
v 0.004053916 -3.3815298E-11 0
v -0.004053916 -3.761974E-10 0
v 0.0012527296 -0.003855503 0
v -0.0012527292 -0.003855503 0
v 0.0036159481 0.0026271401 0.0003957927
v 0.004469558 6.1973534E-12 0.00039579152
v 0.0049467017 8.520857E-11 0.0054417215
v 0.004001966 0.0029075982 0.005441723
v 0.0049467017 -4.9915343E-11 0.015364035
v 0.004001966 0.0029075986 0.015364035
v 0.0049147033 1.1857879E-10 0.015795214
v 0.0039760787 0.00288879 0.015795214
v 0.0030771156 0.0022356608 0.023231354
v 0.0038035272 6.0723697E-09 0.023231357
v 0.000799442 0.00058083277 0.030779464
v 0.000988165 4.142493E-09 0.030779464
v 0.00051478005 3.1441436E-09 0.03128889
v 0.00041646615 0.00030258344 0.03128889
v 8.081401E-11 1.7594146E-09 0.031505663
v 0.003279687 0.0023828319 0
v 0.004053916 -3.3815298E-11 0
v 0.0013811692 0.0042508026 0.00039579152
v 0.0036159481 0.0026271401 0.0003957927
v 0.004001966 0.0029075982 0.005441723
v 0.0015286149 0.0047045937 0.0054417215
v 0.004001966 0.0029075986 0.015364035
v 0.0015286149 0.0047045937 0.015364035
v 0.0039760787 0.00288879 0.015795214
v 0.0015187268 0.004674161 0.015795214
v 0.001175353 0.0036173712 0.023231355
v 0.0030771156 0.0022356608 0.023231354
v 0.00030535966 0.0009398046 0.030779464
v 0.000799442 0.00058083277 0.030779464
v 0.00041646615 0.00030258344 0.03128889
v 0.00015907602 0.0004895888 0.03128889
v 8.081401E-11 1.7594146E-09 0.031505663
v 0.0012527289 0.0038555034 0
v 0.003279687 0.0023828319 0
v -0.0013811694 0.004250802 0.00039579152
v 0.0013811692 0.0042508026 0.00039579152
v 0.0015286149 0.0047045937 0.0054417215
v -0.0015286151 0.004704593 0.0054417215
v 0.0015286149 0.0047045937 0.015364035
v -0.0015286151 0.004704593 0.015364035
v 0.0015187268 0.004674161 0.015795214
v -0.001518727 0.004674161 0.015795214
v -0.0011753533 0.003617371 0.023231355
v 0.001175353 0.0036173712 0.023231355
v 0.00030535966 0.0009398046 0.030779464
v -0.00030535966 0.0009398046 0.030779464
v 0.00015907602 0.0004895888 0.03128889
v -0.00015907596 0.0004895888 0.03128889
v 8.081401E-11 1.7594146E-09 0.031505663
v -0.0012527291 0.003855503 0
v 0.0012527289 0.0038555034 0
v -0.0036159484 0.0026271397 0.0003957927
v -0.0013811694 0.004250802 0.00039579152
v -0.0015286151 0.004704593 0.0054417215
v -0.004001966 0.002907598 0.005441723
v -0.0015286151 0.004704593 0.015364035
v -0.004001966 0.0029075982 0.015364035
v -0.001518727 0.004674161 0.015795214
v -0.0039760787 0.0028887896 0.015795214
v -0.0030771152 0.0022356606 0.023231354
v -0.0011753533 0.003617371 0.023231355
v -0.00030535966 0.0009398046 0.030779464
v -0.00079944206 0.00058083277 0.030779464
v -0.00015907596 0.0004895888 0.03128889
v -0.00041646615 0.0003025835 0.03128889
v 8.081401E-11 1.7594146E-09 0.031505663
v -0.003279687 0.0023828314 0
v -0.0012527291 0.003855503 0
v -0.004469558 -3.8454373E-10 0.00039579152
v -0.0036159484 0.0026271397 0.0003957927
v -0.004001966 0.002907598 0.005441723
v -0.0049467017 -3.4724593E-10 0.0054417215
v -0.004001966 0.0029075982 0.015364035
v -0.0049467017 -4.823698E-10 0.015364035
v -0.0039760787 0.0028887896 0.015795214
v -0.0049147033 -3.1107844E-10 0.015795214
v -0.0038035272 5.7398517E-09 0.023231357
v -0.0030771152 0.0022356606 0.023231354
v -0.00079944206 0.00058083277 0.030779464
v -0.0009881649 4.0561043E-09 0.030779464
v -0.00041646615 0.0003025835 0.03128889
v -0.00051478005 3.09914E-09 0.03128889
v 8.081401E-11 1.7594146E-09 0.031505663
v -0.004053916 -3.761974E-10 0
v -0.003279687 0.0023828314 0
v -0.003615948 -0.0026271408 0.00039579152
v -0.004469558 -3.8454373E-10 0.00039579152
v -0.0049467017 -3.4724593E-10 0.0054417215
v -0.0040019657 -0.002907599 0.00544172
v -0.0049467017 -4.823698E-10 0.015364035
v -0.0040019657 -0.002907599 0.015364035
v -0.0049147033 -3.1107844E-10 0.015795214
v -0.0039760787 -0.0028887908 0.015795214
v -0.0030771196 -0.0022356526 0.023231355
v -0.0038035272 5.7398517E-09 0.023231357
v -0.00079944223 -0.0005808247 0.030779464
v -0.0009881649 4.0561043E-09 0.030779464
v -0.00051478005 3.09914E-09 0.03128889
v -0.0004164653 -0.0003025767 0.03128889
v 8.081401E-11 1.7594146E-09 0.031505663
v -0.0032796864 -0.0023828326 0
v -0.004053916 -3.761974E-10 0
v -0.0013811697 -0.004250802 0.0003957927
v -0.003615948 -0.0026271408 0.00039579152
v -0.0040019657 -0.002907599 0.00544172
v -0.0015286155 -0.004704593 0.0054417215
v -0.0040019657 -0.002907599 0.015364035
v -0.0015286155 -0.0047045927 0.015364035
v -0.0039760787 -0.0028887908 0.015795214
v -0.0015187274 -0.004674161 0.015795214
v -0.001175356 -0.0036173654 0.023231355
v -0.0030771196 -0.0022356526 0.023231355
v -0.0003053599 -0.00093979656 0.030779464
v -0.00079944223 -0.0005808247 0.030779464
v -0.0004164653 -0.0003025767 0.03128889
v -0.00015907551 -0.00048958085 0.03128889
v 8.081401E-11 1.7594146E-09 0.031505663
v -0.0012527292 -0.003855503 0
v -0.0032796864 -0.0023828326 0
v 0.0013811698 -0.004250802 0.0003957927
v -0.0013811697 -0.004250802 0.0003957927
v -0.0015286155 -0.004704593 0.0054417215
v 0.0015286156 -0.004704593 0.0054417215
v -0.0015286155 -0.0047045927 0.015364035
v 0.0015286156 -0.0047045927 0.015364035
v -0.0015187274 -0.004674161 0.015795214
v 0.0015187276 -0.004674161 0.015795214
v 0.0011753559 -0.0036173656 0.023231355
v -0.001175356 -0.0036173654 0.023231355
v 0.00030535992 -0.00093979656 0.030779464
v -0.0003053599 -0.00093979656 0.030779464
v -0.00015907551 -0.00048958085 0.03128889
v 0.00015907561 -0.00048958085 0.03128889
v 8.081401E-11 1.7594146E-09 0.031505663
v 0.0012527296 -0.003855503 0
v -0.0012527292 -0.003855503 0
v 0.0036159488 -0.002627139 0.00039579152
v 0.0013811698 -0.004250802 0.0003957927
v 0.0015286156 -0.004704593 0.0054417215
v 0.004001967 -0.002907597 0.00544172
v 0.0015286156 -0.0047045927 0.015364035
v 0.004001967 -0.0029075968 0.015364035
v 0.0015187276 -0.004674161 0.015795214
v 0.00397608 -0.0028887887 0.015795214
v 0.0030771208 -0.0022356512 0.023231355
v 0.0011753559 -0.0036173656 0.023231355
v 0.0007994424 -0.0005808243 0.030779464
v 0.00030535992 -0.00093979656 0.030779464
v 0.00015907561 -0.00048958085 0.03128889
v 0.0004164655 -0.00030257646 0.03128889
v 8.081401E-11 1.7594146E-09 0.031505663
v 0.0032796876 -0.0023828307 0
v 0.0012527296 -0.003855503 0
v 0.004469558 6.1973534E-12 0.00039579152
v 0.0036159488 -0.002627139 0.00039579152
v 0.004001967 -0.002907597 0.00544172
v 0.0049467017 8.520857E-11 0.0054417215
v 0.004001967 -0.0029075968 0.015364035
v 0.0049467017 -4.9915343E-11 0.015364035
v 0.00397608 -0.0028887887 0.015795214
v 0.0049147033 1.1857879E-10 0.015795214
v 0.0038035272 6.0723697E-09 0.023231357
v 0.0030771208 -0.0022356512 0.023231355
v 0.000988165 4.142493E-09 0.030779464
v 0.0007994424 -0.0005808243 0.030779464
v 0.0004164655 -0.00030257646 0.03128889
v 0.00051478005 3.1441436E-09 0.03128889
v 8.081401E-11 1.7594146E-09 0.031505663
v 0.004053916 -3.3815298E-11 0
v 0.0032796876 -0.0023828307 0
v -0.003279687 0.0023828314 0
v -0.004053916 -3.761974E-10 0
v 0.004053916 -3.3815298E-11 0
v 0.003279687 0.0023828319 0
v -0.0012527291 0.003855503 0
v 0.0012527289 0.0038555034 0
vt 0.9140183 0.924514
vt 0.9140183 0.6937187
vt 0.830177 0.6664772
vt 0.830177 0.9517556
vt 0.9658349 0.76503843
vt 0.9658349 0.8531942
vt 0.4271652 0.920826
vt 0.75681543 0.920826
vt 0.7735964 0.7820037
vt 0.41302386 0.7820037
vt 0.7735964 0.51877856
vt 0.41302386 0.518778
vt 0.7735964 0.49716052
vt 0.41302386 0.49716032
vt 0.45172688 0.292579
vt 0.73225415 0.292579
vt 0.5555494 0.084916726
vt 0.628431 0.084916726
vt 0.610974 0.05942952
vt 0.57300687 0.05942952
vt 0.5919906 0.044584025
vt 0.44249305 0.9629745
vt 0.74148786 0.9629745
vt 0.7568156 0.9208266
vt 0.4271652 0.920826
vt 0.41302386 0.7820037
vt 0.7735964 0.7820037
vt 0.41302386 0.518778
vt 0.7735964 0.5187783
vt 0.41302386 0.49716032
vt 0.7735964 0.49716052
vt 0.73225373 0.292579
vt 0.45172688 0.292579
vt 0.628431 0.084916726
vt 0.5555494 0.084916726
vt 0.57300687 0.05942952
vt 0.610974 0.05942952
vt 0.5919906 0.044584025
vt 0.74148786 0.9629745
vt 0.44249305 0.9629745
vt 0.4271657 0.9208266
vt 0.7568156 0.9208266
vt 0.7735964 0.7820037
vt 0.41302386 0.7820037
vt 0.7735964 0.5187783
vt 0.41302386 0.5187783
vt 0.7735964 0.49716052
vt 0.41302386 0.49716052
vt 0.45172727 0.292579
vt 0.73225373 0.292579
vt 0.628431 0.084916726
vt 0.5555494 0.084916726
vt 0.610974 0.05942952
vt 0.5730065 0.05942952
vt 0.5919906 0.044584025
vt 0.44249305 0.9629745
vt 0.74148786 0.9629745
vt 0.75681543 0.920826
vt 0.4271657 0.9208266
vt 0.41302386 0.7820037
vt 0.7735964 0.7820037
vt 0.41302386 0.5187783
vt 0.7735964 0.5187783
vt 0.41302386 0.49716052
vt 0.7735964 0.49716052
vt 0.73225415 0.292579
vt 0.45172727 0.292579
vt 0.5555494 0.084916726
vt 0.628431 0.084916726
vt 0.5730065 0.05942952
vt 0.610974 0.05942952
vt 0.5919906 0.044584025
vt 0.74148786 0.9629745
vt 0.44249305 0.9629745
vt 0.4271652 0.920826
vt 0.75681543 0.920826
vt 0.7735964 0.7820037
vt 0.41302386 0.7820037
vt 0.7735964 0.5187783
vt 0.41302386 0.5187783
vt 0.7735964 0.49716052
vt 0.41302386 0.49716032
vt 0.4517264 0.292579
vt 0.73225415 0.292579
vt 0.628431 0.084916726
vt 0.5555494 0.084916726
vt 0.610974 0.05942952
vt 0.57300687 0.05942952
vt 0.5919906 0.044584025
vt 0.44249305 0.9629745
vt 0.74148786 0.9629745
vt 0.7568156 0.9208266
vt 0.4271657 0.9208266
vt 0.41302386 0.7820037
vt 0.7735964 0.7820037
vt 0.41302386 0.518778
vt 0.7735964 0.5187783
vt 0.41302386 0.49716032
vt 0.7735964 0.49716052
vt 0.73225415 0.2925787
vt 0.45172688 0.292579
vt 0.628431 0.084916726
vt 0.5555494 0.084916726
vt 0.57300687 0.05942952
vt 0.6109744 0.05942952
vt 0.5919906 0.044584025
vt 0.74148786 0.96297413
vt 0.44249353 0.96297413
vt 0.4271657 0.9208266
vt 0.7568156 0.9208266
vt 0.7735964 0.7820037
vt 0.41302386 0.7820037
vt 0.7735964 0.5187783
vt 0.41302386 0.5187783
vt 0.7735964 0.49716052
vt 0.41302386 0.49716052
vt 0.45172688 0.292579
vt 0.73225415 0.2925787
vt 0.5555494 0.084916726
vt 0.628431 0.084916726
vt 0.6109744 0.05942952
vt 0.57300687 0.05942952
vt 0.5919906 0.044584025
vt 0.44249353 0.96297413
vt 0.74148786 0.96297413
vt 0.7568156 0.9208266
vt 0.4271657 0.9208266
vt 0.41302386 0.7820037
vt 0.7735964 0.7820037
vt 0.41302386 0.5187783
vt 0.7735964 0.5187783
vt 0.41302386 0.49716052
vt 0.7735964 0.49716052
vt 0.73225415 0.292579
vt 0.45172688 0.292579
vt 0.628431 0.084916726
vt 0.5555494 0.084916726
vt 0.57300687 0.05942952
vt 0.610974 0.05942952
vt 0.5919906 0.044584025
vt 0.74148786 0.96297413
vt 0.44249353 0.96297413
vt 0.4271657 0.9208266
vt 0.7568156 0.9208266
vt 0.7735964 0.7820037
vt 0.41302386 0.78200424
vt 0.7735964 0.5187783
vt 0.41302386 0.518778
vt 0.7735964 0.49716052
vt 0.41302386 0.49716032
vt 0.4517277 0.2925787
vt 0.73225415 0.292579
vt 0.5555498 0.084916726
vt 0.628431 0.084916726
vt 0.610974 0.05942952
vt 0.57300687 0.05942952
vt 0.5919906 0.044584025
vt 0.44249353 0.96297413
vt 0.74148786 0.96297413
vt 0.7568156 0.9208266
vt 0.4271657 0.9208266
vt 0.41302386 0.78200424
vt 0.7735964 0.7820037
vt 0.41302386 0.518778
vt 0.7735964 0.5187783
vt 0.41302386 0.49716032
vt 0.7735964 0.49716052
vt 0.73225415 0.292579
vt 0.4517277 0.2925787
vt 0.62843144 0.084916726
vt 0.5555498 0.084916726
vt 0.57300687 0.05942952
vt 0.6109744 0.05942952
vt 0.5919906 0.044584025
vt 0.74148786 0.96297413
vt 0.44249353 0.96297413
vt 0.9140183 0.924514
vt 0.830177 0.9517556
vt 0.830177 0.6664772
vt 0.9140183 0.6937187
vt 0.9658349 0.8531942
vt 0.9658349 0.76503843
vn -0 0 -1
vn -0 0 -1
vn -0 0 -1
vn -0 0 -1
vn -0 0 -1
vn -0 0 -1
vn 0.79778713 0.5796283 -0.16603242
vn 0.98612034 1.9755865E-07 -0.16603251
vn 1 1.5959256E-07 0
vn 0.8090169 0.5877853 0
vn 1 1.5959327E-07 0
vn 0.8090169 0.5877853 0
vn 0.9802874 3.4931682E-07 0.19757739
vn 0.7930694 0.576198 0.19757743
vn 0.7843271 0.56984776 0.24516225
vn 0.969482 9.586612E-07 0.24516265
vn 0.711922 0.51724154 0.47500357
vn 0.87998396 6.923845E-07 0.47500354
vn 0.59988487 -4.0031327E-07 0.8000863
vn 0.48531702 0.35260302 0.8000865
vn -0 -1.6138805E-06 1
vn -0 0 -1
vn -0 0 -1
vn 0.30472755 0.9378562 -0.16603263
vn 0.79778713 0.5796283 -0.16603242
vn 0.8090169 0.5877853 0
vn 0.3090169 0.95105654 0
vn 0.8090169 0.5877853 0
vn 0.3090169 0.95105654 0
vn 0.7930694 0.576198 0.19757743
vn 0.30292553 0.9323085 0.19757737
vn 0.2995863 0.92203224 0.24516231
vn 0.7843271 0.56984776 0.24516225
vn 0.27193 0.83691454 0.47500333
vn 0.711922 0.51724154 0.47500357
vn 0.48531702 0.35260302 0.8000865
vn 0.1853747 0.570524 0.8000866
vn -0 -1.6138805E-06 1
vn -0 0 -1
vn -0 0 -1
vn -0.3047289 0.9378558 -0.16603255
vn 0.30472755 0.9378562 -0.16603263
vn 0.3090169 0.95105654 0
vn -0.3090169 0.95105654 0
vn 0.3090169 0.95105654 0
vn -0.3090169 0.95105654 0
vn 0.30292553 0.9323085 0.19757737
vn -0.30292553 0.9323085 0.19757737
vn -0.29958645 0.92203224 0.24516231
vn 0.2995863 0.92203224 0.24516231
vn 0.27193 0.83691454 0.47500333
vn -0.27193 0.83691454 0.47500333
vn 0.1853747 0.570524 0.8000866
vn -0.18537465 0.57052386 0.8000867
vn -0 -1.6138805E-06 1
vn -0 0 -1
vn -0 0 -1
vn -0.79778713 0.5796283 -0.16603242
vn -0.3047289 0.9378558 -0.16603255
vn -0.3090169 0.95105654 0
vn -0.8090169 0.5877853 0
vn -0.3090169 0.95105654 0
vn -0.8090169 0.5877853 0
vn -0.30292553 0.9323085 0.19757737
vn -0.7930694 0.576198 0.19757743
vn -0.7843271 0.5698478 0.24516225
vn -0.29958645 0.92203224 0.24516231
vn -0.27193 0.83691454 0.47500333
vn -0.711922 0.51724154 0.47500357
vn -0.18537465 0.57052386 0.8000867
vn -0.48531702 0.35260302 0.8000865
vn -0 -1.6138805E-06 1
vn -0 0 -1
vn -0 0 -1
vn -0.98612034 0 -0.16603251
vn -0.79778713 0.5796283 -0.16603242
vn -0.8090169 0.5877853 0
vn -1 0 0
vn -0.8090169 0.5877853 0
vn -1 0 0
vn -0.7930694 0.576198 0.19757743
vn -0.9802874 2.0561961E-07 0.19757739
vn -0.969482 8.2608045E-07 0.24516265
vn -0.7843271 0.5698478 0.24516225
vn -0.711922 0.51724154 0.47500357
vn -0.87998396 5.704463E-07 0.47500354
vn -0.48531702 0.35260302 0.8000865
vn -0.59988487 -5.2699477E-07 0.8000863
vn -0 -1.6138805E-06 1
vn -0 0 -1
vn -0 0 -1
vn -0.7977872 -0.57962835 -0.16603208
vn -0.98612034 0 -0.16603251
vn -1 0 0
vn -0.8090169 -0.5877853 0
vn -1 0 0
vn -0.8090169 -0.5877853 0
vn -0.9802874 2.0561961E-07 0.19757739
vn -0.7930694 -0.576198 0.19757743
vn -0.7843275 -0.569847 0.24516264
vn -0.969482 8.2608045E-07 0.24516265
vn -0.7119218 -0.5172418 0.47500345
vn -0.87998396 5.704463E-07 0.47500354
vn -0.59988487 -5.2699477E-07 0.8000863
vn -0.485317 -0.35260412 0.80008614
vn -0 -1.6138805E-06 1
vn -0 0 -1
vn -0 0 -1
vn -0.30472758 -0.9378562 -0.16603225
vn -0.7977872 -0.57962835 -0.16603208
vn -0.8090169 -0.5877853 0
vn -0.3090169 -0.95105654 0
vn -0.8090169 -0.5877853 0
vn -0.3090169 -0.95105654 0
vn -0.7930694 -0.576198 0.19757743
vn -0.30292553 -0.9323085 0.19757737
vn -0.2995865 -0.9220322 0.24516277
vn -0.7843275 -0.569847 0.24516264
vn -0.27192983 -0.83691454 0.47500333
vn -0.7119218 -0.5172418 0.47500345
vn -0.485317 -0.35260412 0.80008614
vn -0.18537456 -0.57052493 0.800086
vn -0 -1.6138805E-06 1
vn -0 0 -1
vn -0 0 -1
vn 0.30472758 -0.9378562 -0.16603225
vn -0.30472758 -0.9378562 -0.16603225
vn -0.3090169 -0.95105654 0
vn 0.3090169 -0.95105654 0
vn -0.3090169 -0.95105654 0
vn 0.3090169 -0.95105654 0
vn -0.30292553 -0.9323085 0.19757737
vn 0.30292553 -0.9323085 0.19757737
vn 0.29958653 -0.92203206 0.24516274
vn -0.2995865 -0.9220322 0.24516277
vn 0.2719302 -0.8369145 0.47500333
vn -0.27192983 -0.83691454 0.47500333
vn -0.18537456 -0.57052493 0.800086
vn 0.18537468 -0.5705249 0.8000859
vn -0 -1.6138805E-06 1
vn -0 0 -1
vn -0 0 -1
vn 0.79778856 -0.57962626 -0.16603234
vn 0.30472758 -0.9378562 -0.16603225
vn 0.3090169 -0.95105654 0
vn 0.8090169 -0.5877853 0
vn 0.3090169 -0.95105654 0
vn 0.8090169 -0.5877853 0
vn 0.30292553 -0.9323085 0.19757737
vn 0.7930694 -0.576198 0.19757743
vn 0.7843277 -0.5698468 0.24516267
vn 0.29958653 -0.92203206 0.24516274
vn 0.7119217 -0.517242 0.4750034
vn 0.2719302 -0.8369145 0.47500333
vn 0.18537468 -0.5705249 0.8000859
vn 0.48531714 -0.352604 0.8000861
vn -0 -1.6138805E-06 1
vn -0 0 -1
vn -0 0 -1
vn 0.98612034 1.9755865E-07 -0.16603251
vn 0.79778856 -0.57962626 -0.16603234
vn 0.8090169 -0.5877853 0
vn 1 1.5959256E-07 0
vn 0.8090169 -0.5877853 0
vn 1 1.5959327E-07 0
vn 0.7930694 -0.576198 0.19757743
vn 0.9802874 3.4931682E-07 0.19757739
vn 0.969482 9.586612E-07 0.24516265
vn 0.7843277 -0.5698468 0.24516267
vn 0.87998396 6.923845E-07 0.47500354
vn 0.7119217 -0.517242 0.4750034
vn 0.48531714 -0.352604 0.8000861
vn 0.59988487 -4.0031327E-07 0.8000863
vn -0 -1.6138805E-06 1
vn -0 0 -1
vn -0 0 -1
vn -0 0 -1
vn -0 0 -1
vn -0 0 -1
vn -0 0 -1
vn -0 0 -1
vn -0 0 -1
g OL_Bullet_01_Warhead_0
f 3/3/3 2/2/2 1/1/1
f 4/4/4 3/3/3 1/1/1
f 1/1/1 2/2/2 5/5/5
f 6/6/6 1/1/1 5/5/5
f 9/9/9 8/8/8 7/7/7
f 10/10/10 9/9/9 7/7/7
f 11/11/11 9/9/9 10/10/10
f 12/12/12 11/11/11 10/10/10
f 13/13/13 11/11/11 12/12/12
f 14/14/14 13/13/13 12/12/12
f 13/13/13 14/14/14 15/15/15
f 16/16/16 13/13/13 15/15/15
f 16/16/16 15/15/15 17/17/17
f 18/18/18 16/16/16 17/17/17
f 19/19/19 18/18/18 17/17/17
f 20/20/20 19/19/19 17/17/17
f 21/21/21 19/19/19 20/20/20
f 7/7/7 8/8/8 22/22/22
f 8/8/8 23/23/23 22/22/22
f 26/26/26 25/25/25 24/24/24
f 27/27/27 26/26/26 24/24/24
f 28/28/28 26/26/26 27/27/27
f 29/29/29 28/28/28 27/27/27
f 30/30/30 28/28/28 29/29/29
f 31/31/31 30/30/30 29/29/29
f 30/30/30 31/31/31 32/32/32
f 33/33/33 30/30/30 32/32/32
f 33/33/33 32/32/32 34/34/34
f 35/35/35 33/33/33 34/34/34
f 36/36/36 35/35/35 34/34/34
f 37/37/37 36/36/36 34/34/34
f 38/38/38 36/36/36 37/37/37
f 24/24/24 25/25/25 39/39/39
f 25/25/25 40/40/40 39/39/39
f 43/43/43 42/42/42 41/41/41
f 44/44/44 43/43/43 41/41/41
f 45/45/45 43/43/43 44/44/44
f 46/46/46 45/45/45 44/44/44
f 47/47/47 45/45/45 46/46/46
f 48/48/48 47/47/47 46/46/46
f 47/47/47 48/48/48 49/49/49
f 50/50/50 47/47/47 49/49/49
f 51/51/51 50/50/50 49/49/49
f 52/52/52 51/51/51 49/49/49
f 53/53/53 51/51/51 52/52/52
f 54/54/54 53/53/53 52/52/52
f 55/55/55 53/53/53 54/54/54
f 41/41/41 42/42/42 56/56/56
f 42/42/42 57/57/57 56/56/56
f 60/60/60 59/59/59 58/58/58
f 61/61/61 60/60/60 58/58/58
f 62/62/62 60/60/60 61/61/61
f 63/63/63 62/62/62 61/61/61
f 64/64/64 62/62/62 63/63/63
f 65/65/65 64/64/64 63/63/63
f 64/64/64 65/65/65 66/66/66
f 67/67/67 64/64/64 66/66/66
f 68/68/68 67/67/67 66/66/66
f 69/69/69 68/68/68 66/66/66
f 70/70/70 68/68/68 69/69/69
f 71/71/71 70/70/70 69/69/69
f 72/72/72 70/70/70 71/71/71
f 58/58/58 59/59/59 73/73/73
f 59/59/59 74/74/74 73/73/73
f 77/77/77 76/76/76 75/75/75
f 78/78/78 77/77/77 75/75/75
f 79/79/79 77/77/77 78/78/78
f 80/80/80 79/79/79 78/78/78
f 81/81/81 79/79/79 80/80/80
f 82/82/82 81/81/81 80/80/80
f 81/81/81 82/82/82 83/83/83
f 84/84/84 81/81/81 83/83/83
f 85/85/85 84/84/84 83/83/83
f 86/86/86 85/85/85 83/83/83
f 87/87/87 85/85/85 86/86/86
f 88/88/88 87/87/87 86/86/86
f 89/89/89 87/87/87 88/88/88
f 75/75/75 76/76/76 90/90/90
f 76/76/76 91/91/91 90/90/90
f 94/94/94 93/93/93 92/92/92
f 95/95/95 94/94/94 92/92/92
f 96/96/96 94/94/94 95/95/95
f 97/97/97 96/96/96 95/95/95
f 98/98/98 96/96/96 97/97/97
f 99/99/99 98/98/98 97/97/97
f 98/98/98 99/99/99 100/100/100
f 101/101/101 98/98/98 100/100/100
f 101/101/101 100/100/100 102/102/102
f 103/103/103 101/101/101 102/102/102
f 104/104/104 103/103/103 102/102/102
f 105/105/105 104/104/104 102/102/102
f 106/106/106 104/104/104 105/105/105
f 92/92/92 93/93/93 107/107/107
f 93/93/93 108/108/108 107/107/107
f 111/111/111 110/110/110 109/109/109
f 112/112/112 111/111/111 109/109/109
f 113/113/113 111/111/111 112/112/112
f 114/114/114 113/113/113 112/112/112
f 115/115/115 113/113/113 114/114/114
f 116/116/116 115/115/115 114/114/114
f 115/115/115 116/116/116 117/117/117
f 118/118/118 115/115/115 117/117/117
f 118/118/118 117/117/117 119/119/119
f 120/120/120 118/118/118 119/119/119
f 121/121/121 120/120/120 119/119/119
f 122/122/122 121/121/121 119/119/119
f 123/123/123 121/121/121 122/122/122
f 109/109/109 110/110/110 124/124/124
f 110/110/110 125/125/125 124/124/124
f 128/128/128 127/127/127 126/126/126
f 129/129/129 128/128/128 126/126/126
f 130/130/130 128/128/128 129/129/129
f 131/131/131 130/130/130 129/129/129
f 132/132/132 130/130/130 131/131/131
f 133/133/133 132/132/132 131/131/131
f 132/132/132 133/133/133 134/134/134
f 135/135/135 132/132/132 134/134/134
f 135/135/135 134/134/134 136/136/136
f 137/137/137 135/135/135 136/136/136
f 138/138/138 137/137/137 136/136/136
f 139/139/139 138/138/138 136/136/136
f 140/140/140 138/138/138 139/139/139
f 126/126/126 127/127/127 141/141/141
f 127/127/127 142/142/142 141/141/141
f 145/145/145 144/144/144 143/143/143
f 146/146/146 145/145/145 143/143/143
f 147/147/147 145/145/145 146/146/146
f 148/148/148 147/147/147 146/146/146
f 149/149/149 147/147/147 148/148/148
f 150/150/150 149/149/149 148/148/148
f 149/149/149 150/150/150 151/151/151
f 152/152/152 149/149/149 151/151/151
f 152/152/152 151/151/151 153/153/153
f 154/154/154 152/152/152 153/153/153
f 155/155/155 154/154/154 153/153/153
f 156/156/156 155/155/155 153/153/153
f 157/157/157 155/155/155 156/156/156
f 143/143/143 144/144/144 158/158/158
f 144/144/144 159/159/159 158/158/158
f 162/162/162 161/161/161 160/160/160
f 163/163/163 162/162/162 160/160/160
f 164/164/164 162/162/162 163/163/163
f 165/165/165 164/164/164 163/163/163
f 166/166/166 164/164/164 165/165/165
f 167/167/167 166/166/166 165/165/165
f 166/166/166 167/167/167 168/168/168
f 169/169/169 166/166/166 168/168/168
f 169/169/169 168/168/168 170/170/170
f 171/171/171 169/169/169 170/170/170
f 172/172/172 171/171/171 170/170/170
f 173/173/173 172/172/172 170/170/170
f 174/174/174 172/172/172 173/173/173
f 160/160/160 161/161/161 175/175/175
f 161/161/161 176/176/176 175/175/175
f 179/179/179 178/178/178 177/177/177
f 180/180/180 179/179/179 177/177/177
f 180/180/180 177/177/177 181/181/181
f 182/182/182 180/180/180 181/181/181
